<svg id="Layer_1" data-name="Layer 1" xmlns="http://www.w3.org/2000/svg" width="525" height="225" viewBox="0 0 525 225"><defs><style>.cls-1{fill:#231f20;}.cls-2{fill:#fff;}</style></defs><title>2020-02-09-design-squiggle</title><rect class="cls-1" width="525" height="225"/><path class="cls-2" d="M29,100.36a25.52,25.52,0,0,0,.29,4.28.38.38,0,0,0,.61.22c1.5-1.65,5.88-15.28,1.4-14.09-2.56.68-3.31,4.37-3.68,6.55a43.39,43.39,0,0,0,.1,13.07c.46,3.32,1.05,8.23,3.7,10.65a.37.37,0,0,0,.52,0,21.12,21.12,0,0,0,3.84-6.31,60.84,60.84,0,0,0,3.79-11c1.19-4.92,3-13.21-1.54-17.07a.37.37,0,0,0-.56.17c-2.79,7.86-1.52,17.21.94,25a29.49,29.49,0,0,0,5,10c.74.89,1.87,2.22,3.2,1.94,3-.64,2.82-7,2.88-9.1a73.16,73.16,0,0,0-1.91-18.18C46.42,91.69,44.85,84.76,40.34,82a.39.39,0,0,0-.52.09c-2.56,3.51-3.27,8.25-3.78,12.47a143.73,143.73,0,0,0-.73,18.79c.06,5.84.31,11.67.38,17.51,0,2.73,0,5.44.08,8.17.11,4,.32,8.52-1.77,12.14l.64.06c-1.71-4-1.65-8.63-1.39-12.85A63.35,63.35,0,0,1,35.75,124a34.86,34.86,0,0,1,2.06-5.43,7.76,7.76,0,0,1,1.39-2.34c.46-.38.2-.42.45-.35s.94,1.17,1.08,1.38C44,122,45.32,128.1,47.37,133.48l.67-.32c-3.3-7.93-6.21-16-10.3-23.61-2-3.66-7.43-14.09-13-9.24-2.71,2.37-2.34,7-2,10.19a61,61,0,0,0,4,15.6c2.52,6.2,8.84,18.5,17.5,14.91,4.06-1.68,6.68-6.11,8.63-9.8a107.5,107.5,0,0,0,6.72-16.77l-.72-.07c2.83,14.61,5.17,29.36,7.12,44.11.53,3.93,1,7.88,1.25,11.84a41,41,0,0,1,0,6.27c-.12,1.11-.24,3.23-1.36,3.9-2.86,1.71-7.35-6.54-8.32-8.29a72.49,72.49,0,0,1-6.23-16c-3.23-11.84-4.82-24.6-3.51-36.85,1-9.55,4.69-18.62,6.3-28.08,1-6,2.14-15.6-4.78-18.63C41,68.9,33.34,77,29,83.35c-3,4.43-5.28,9.72-5.16,15.15.08,3.62,1.13,8.08,5.07,9.22,3.31,1,7.06-.53,10-2,3.47-1.82,5.77-4.53,8.22-7.53,1.74-2.13,3.45-4.31,5.38-6.28,1.42-1.45,3.35-3.47,5.52-3.59,2.34-.14,3.88,2.74,5,4.44A79.53,79.53,0,0,1,67,100.2c1.09,2.25,2.12,4.53,3,6.85a.38.38,0,0,0,.5.18c4.79-3.06,7.26-8.88,9.19-14a107.82,107.82,0,0,0,3.47-11.31,156.75,156.75,0,0,0,5.14-29c.28-4.43,1.33-16.71-5.22-17.69-3.18-.48-6.31,2.24-8.42,4.25a55.28,55.28,0,0,0-8.62,10.94,50.84,50.84,0,0,0-2.87,5.21c-1,2.05.75,3.8,1.94,5.52,2.3,3.34,4.29,6.42,5.38,10.38a21.42,21.42,0,0,1,.35,10.28c-1.28,5.76-5,10.4-8.41,15-1.41,1.91-6.87,10.57-9.85,7.48-1.77-1.83-1.79-5.65-2-8a40,40,0,0,1,.06-9.22c.32-2.5.92-5.74,2.92-7.5,1.46-1.28,3-.51,4.42.42,3.62,2.38,6.5,6.07,9.15,9.43,2.86,3.63,5.53,7.42,8,11.31a45,45,0,0,1,5.66,34.36c-1.51,6.28-4.5,11.8-10.48,14.75a13.24,13.24,0,0,1-8.29,1.47c-3.65-.73-5.84-3.82-6.84-7.22-.91-3.09-1.18-6.35-2-9.48a.38.38,0,0,0-.44-.3c-4.21.58-7.36,5.6-9.58,8.75-3,4.24-5.68,8.53-9,12.54s-7.1,9-6,14.55c.84,4.12,4,6.76,8,7.83,7.17,2,17,.43,23.11-3.66,4.18-2.78,4.67-6.87,3-11.41-1.12-3-2.81-5.71-4-8.65-1.53-3.65-2.92-7.36-4.23-11.09a233.67,233.67,0,0,1-7.2-24.76c-1.5-6.52-3.56-13.84-2.68-20.6.48-3.73,2.52-5.93,5.65-7.77,1.56-.91,3.15-1.76,4.66-2.74s3.09-1.47,2.67-3.47c-.92-4.38-4.58-6.16-8.16-8.15-4.07-2.26-6.94-6.36-4-10.8,2.48-3.74,7.06-6,11-7.76a48,48,0,0,1,11-3.52c4.13-.69,8.7,0,11.77,3.06,3.48,3.41,4.59,8.61,5,13.29a76.46,76.46,0,0,1-1.29,19.68c-1.48,8.58-3.5,17.08-5.6,25.52-1.91,7.68-4,15.3-5.88,23-.8,3.31-1.57,6.64-2.58,9.9-.35,1.14-2.55,8-3.46,7.81-.57-.1-1.34-1.84-1.59-2.28a23.71,23.71,0,0,1-1.4-3.13A51.28,51.28,0,0,1,60,142.65a118.25,118.25,0,0,1-1.95-16.88c-.64-12.29.62-24.46,6.17-35.65,1.58-3.19,10.92-17.39,13.28-7.72,1.73,7.09.34,15.31-.55,22.43-.92,7.32-2.16,14.59-3.53,21.84a96.79,96.79,0,0,1-2.76,11.75c-.93,2.9-4.49,12.31-8.67,7.71-2.81-3.09-3.48-8.43-4.1-12.38a89.94,89.94,0,0,1-1.11-13.9c0-13,5-24.71,13.24-34.64A120.19,120.19,0,0,1,82.74,72.39c3-2.6,6.79-5.51,10.88-5.55,2.32,0,5.2.76,7.35-.46,6.11-3.48,3.49-13.16,1.21-18.06-2.82-6.06-8.34-13.4-15.56-14.11-3.58-.36-6.55,1.41-8.89,4A31.76,31.76,0,0,0,69.46,55c-1.78,12.41,4.26,24.5,10.31,34.9,3,5.24,6.5,10.29,9.26,15.7A53.52,53.52,0,0,1,95,128.26,57.23,57.23,0,0,1,90.62,151c-.49,1.2-1.15,3.08-2.32,3.85-1.82,1.22-3.24-1.59-3.9-2.91a25.39,25.39,0,0,1-2-6.44c-2.2-10.89-1.83-22.84,0-33.77a60.58,60.58,0,0,1,4.59-14.6c2.2-5,5.09-11.57,10-14.49.83-.5.58-.5,1,.29a12.63,12.63,0,0,1,.66,2.17c.47,1.82.81,3.67,1.11,5.52A133.14,133.14,0,0,1,101.15,105c.13,2.39,1.13,23.18-4,21.48-1.73-.57-3.26-2.3-4.49-3.56A68.16,68.16,0,0,1,88,117.54a56.07,56.07,0,0,1-6.48-9.42C75,95,85,81.29,91.47,70.32c2.47-4.2,4.92-9.44,8.73-12.61,3.53-2.94,5,1.86,5.61,4.66,1.89,8.64,1.36,17.76,1.5,26.55.16,10.8.57,21.5-.23,32.29-.86,11.47-2.49,23.48-7.43,34a36.73,36.73,0,0,1-3.86,6.54c-1.16,1.55-3,4.15-4.86,4.94-.7.29-.31.47-.84,0a2.91,2.91,0,0,1-.42-.91,16.67,16.67,0,0,1-.89-3.08,42.16,42.16,0,0,1-.69-7.17c-.26-10.3,1.2-20.7,2.92-30.82s3.93-20.39,8-29.86a38,38,0,0,1,3.86-7.16,17,17,0,0,1,2.14-2.5,8.47,8.47,0,0,1,1.09-.89c.81-.57.7-.64,1.28-.07,1.35,1.33,1.56,4.63,1.79,6.39a75.33,75.33,0,0,1,.57,8.63c.25,11.15-.39,22.88,2.86,33.69a.38.38,0,0,0,.74,0,152,152,0,0,0,.28-28.38.37.37,0,0,0-.52-.28c-2.8,1.28-4.45,5-5.71,7.6a102,102,0,0,0-5.9,15.76c-3.22,10.8-6.33,22.93-5.32,34.29.25,2.74.83,6.73,3.64,8.08,2.34,1.12,4-.66,5.06-2.62,2.1-4,2.87-8.78,3.63-13.16,1.11-6.33,1.84-12.72,2.54-19.1.81-7.37,1.51-14.75,2.43-22.11.65-5.18,1.12-10.79,3-15.69l-.64.11c3.59,5.54,4.5,13.24,5.47,19.62a125.79,125.79,0,0,1,1.73,21.83l.74,0C122.23,131,122,122.87,122,114.88c0-7.06-.13-14.16.06-21.22.08-3.1.24-6.47,1.47-9.36,0,0,.76-1.89,1.08-1.88a8.81,8.81,0,0,1,.86,1.64,26.43,26.43,0,0,1,1.69,4.38c1.81,6.24,2.1,12.88,2.52,19.34.47,7,.77,14.31,3,21.06.1.29.48.24.64,0s1.9-1.94,2.27-1.88c.52.07,1.23,1.66,1.46,2.11a18.18,18.18,0,0,1,1.73,6.12A36,36,0,0,1,137.52,149a32,32,0,0,1-4.76,10.52c-1,1.32-2.23,2.93-3.82,3.56-6.13,2.46-6.67-15.82-6.85-18.65a300.68,300.68,0,0,1,.3-34.49c.49-9.06.86-18.49,4-27.1.88-2.47,2.91-7.2,5.91-4.08s3.39,7.72,3.51,11.76c.16,4.91-.25,9.82-.23,14.73,0,3.88.19,8,1.86,11.53a.38.38,0,0,0,.69,0c5.06-11.45,3-25,8.74-36.17l-.72-.06c1.66,24.94-6.16,49.75-2.62,74.64.05.35.62.43.72.07,7.29-27.42,6.9-56.1,11.09-84l-.74,0c3.34,12.51,1.73,26,1.93,38.8a249.34,249.34,0,0,0,4.77,46.5.38.38,0,0,0,.61.22c6.26-5.43,8.3-14.39,9.7-22.2,1.82-10.11,2.4-20.41,4.24-30.52.94-5.16,2.18-10.43,4.77-15l-.64,0c3.1,7.33,1.44,16.31-.46,23.74a79.93,79.93,0,0,1-8.16,20.74,40.09,40.09,0,0,1-6.66,8.35c-2.64,2.57-6.91,6.4-10.93,5-5.75-2-5.24-12-5.11-16.74A158.17,158.17,0,0,1,153.5,97a101.18,101.18,0,0,1,6.05-18.38c1.67-3.61,4.76-10.11,9.62-9.88,3,.14,4.75,2.89,5.86,5.35a51,51,0,0,1,3.15,11.21c1.42,7.15,1.89,15.06,4.95,21.76a.38.38,0,0,0,.65,0c1.61-2.73,2.24-5.83,2.95-8.89l-.63.11c2.35,3.11,3.06,7.24,3.6,11,.66,4.65.9,9.36,1.25,14,.53,7.23.57,17.07,5.93,22.7a.38.38,0,0,0,.63-.12c1.84-6.42,1.63-13.55,1.31-20.15s-.73-13.88-3.36-20a.37.37,0,0,0-.58-.12c-2.11,1.5-2.83,4.33-3.2,6.76a36.71,36.71,0,0,0,.29,11.41c.79,4.73,2.75,14.23,8.59,15.34,2.47.47,4.4-1.41,5.86-3.16,2.56-3.07,4.43-6.73,6.36-10.23,1.8-3.29,3.52-6.85,6-9.71.71-.83,1.95-2.24,3.2-2s2.1,2.79,2.58,3.92a114.83,114.83,0,0,1,4.14,12.4c.51,1.77,1,3.54,1.57,5.31s-.78,3.59-2.09,4.61c-3.32,2.63-10.93,1.91-14-.88-3.52-3.23-3.69-9.93-3.66-14.31a75.53,75.53,0,0,1,2.07-16.33c1.19-5.19,2.8-10.76,5.89-15.15,1.08-1.54,2.71-3.32,4.74-2.41,1.87.84,3.09,3.15,4,4.86A71.15,71.15,0,0,1,232,108.69c.64,2,1.28,4,2.08,6,.39,1,.85,2.47,1.77,3.12a2.54,2.54,0,0,0,2.82.1,3.84,3.84,0,0,0,.78-1.36,44.59,44.59,0,0,1,2.19-4.16c1.23-2,2.41-4.27,4.15-5.9,2.89-2.7,5,.36,6.3,3,3.2,6.7-.08,12.84-3.53,18.66a58.63,58.63,0,0,0-3.68,6.91.35.35,0,0,0,.06.37c6.9,7,13.38-8.15,17.48-11.6,1-.87,2.93-2.33,4.17-1.16.81.75,1.09,2.36,1.46,3.35.85,2.27,2.09,5.15,4.24,6.5,3.8,2.38,7.34-3.88,9.74-5.84,1.55-1.26,3.31-2.39,5.27-1.45,1.29.62,2.46,1.31,3.81,1.83,3.22,1.24,6.45,2.48,9.73,3.58,6.73,2.26,13.22,3.56,20.3,2.26,3.83-.71,7.59-1.52,11.45-2,8.35-1.06,16.78-1.44,25.18-1.72,15.92-.52,31.85-.56,47.78-.55,27.66,0,55.31.32,83,.67l13.47.17c.47,0,.55-.74.07-.74-30.09-.4-60.18-.76-90.27-.83-17.22,0-34.46,0-51.68.47-8.86.26-17.74.61-26.55,1.66-2.78.33-5.56.72-8.3,1.26-4.47.89-8.73,1.82-13.32,1.34a50.62,50.62,0,0,1-10.83-2.68c-3.28-1.1-6.51-2.34-9.73-3.58-1.93-.75-4.23-2.84-6.43-2.22-2.64.74-4.62,3.09-6.42,5a14,14,0,0,1-2.78,2.55c-2,1.22-3.56.07-4.8-1.65-1.66-2.31-1.95-5.29-3.55-7.54a2.35,2.35,0,0,0-3.22-.69C260,123.62,257.7,128.62,255,132c-1.45,1.78-3.46,4.27-5.92,4.56-1,.13-3.25-.42-3.23-1.81,0-.8,1.08-2.22,1.44-2.88s.9-1.59,1.37-2.38c3.07-5.2,6.82-11,5.24-17.32-.75-3-3.67-9.71-7.77-6.91-2,1.34-3.25,3.73-4.47,5.7a42.33,42.33,0,0,0-2.16,3.75c-.6,1.21-1.13,3.59-3,2.55-1.58-.89-2.25-4.09-2.8-5.69-.86-2.49-1.61-5-2.39-7.53-1.31-4.19-3.14-9.57-6.54-12.56C222,89,219.3,91,217.56,93.69c-3.13,4.79-4.77,10.61-6,16.16a68.77,68.77,0,0,0-1.74,18.42c.24,4,.93,10,4.68,12.38,3.5,2.22,9.42,2.74,13.16.84a7.55,7.55,0,0,0,3.37-4c.48-1.38-.42-2.8-.8-4.12-1.32-4.55-2.57-9.11-4.22-13.56-.72-1.94-1.89-7-4.83-6.42s-5,4.8-6.29,7c-2.45,4.17-4.55,8.55-7.23,12.59-1.84,2.77-4.94,7.23-8.68,4.69-3.46-2.34-4.92-7.55-5.79-11.37a36.73,36.73,0,0,1-.78-14,10.68,10.68,0,0,1,2-5.23c.85-1,.53-.6.89.45a32.61,32.61,0,0,1,1,3.91A94.54,94.54,0,0,1,198.21,130c.07,5.19,0,10.69-1.4,15.72l.64-.11c-2.74-2.87-3.77-6.94-4.47-10.73a128.37,128.37,0,0,1-1.47-14,135.63,135.63,0,0,0-1.36-13.5c-.57-3.32-1.41-6.8-3.48-9.54A.38.38,0,0,0,186,98c-.7,3-1.29,6.06-2.87,8.73l.65,0c-3.19-7-3.58-15.26-5.12-22.7-1-4.81-2.24-13.3-7.46-15.57-4.26-1.85-7.8,2-9.89,5.25-3.65,5.71-5.71,12.49-7.49,19a161.56,161.56,0,0,0-6,36.79c-.18,5.08-.67,13.62,3.91,17.17,5.84,4.54,13.56-4.08,16.85-8.11,5.36-6.58,8.52-15,10.84-23,2.39-8.3,4.62-18.53,1.11-26.83a.37.37,0,0,0-.64-.06c-4.29,7.61-5.31,16.86-6.38,25.38-1.26,10-1.94,20.31-5,30-1.44,4.56-3.53,9.08-7.2,12.27l.61.22a245.51,245.51,0,0,1-4.79-47.62c-.09-12.41,1.32-25.55-1.91-37.68a.38.38,0,0,0-.74,0C150.37,99,150.77,127.63,143.5,155l.72.06c-3.54-24.88,4.28-49.7,2.62-74.64,0-.42-.57-.35-.72-.07-5.76,11.17-3.68,24.72-8.74,36.17l.69,0c-2-4.19-1.85-9.16-1.77-13.69s.39-9,.15-13.48c-.19-3.58-.75-7.21-2.94-10.16-1.09-1.47-2.77-3-4.63-1.82-2.09,1.27-3,4.44-3.68,6.6a71.1,71.1,0,0,0-2.29,10.61c-.55,3.68-.78,7.38-1,11.09a331.44,331.44,0,0,0-.66,36.89c.26,5.25.58,10.69,2,15.77.61,2.12,1.74,5.66,4.45,5.8,1.5.08,2.84-1,3.83-2a24.82,24.82,0,0,0,5.32-8.75c3.14-8.06,5.21-20-.91-27.21a.38.38,0,0,0-.59,0c-.76.92-1.86,1.4-2.62,2.32l.64.05c-2.72-8.11-2.65-17-3.28-25.4-.55-7.23-1.11-15.28-5.22-21.51-.14-.22-.45-.13-.59,0-2.45,2.82-2.76,7.07-2.93,10.63-.23,4.65,0,9.33-.07,14-.08,10.87-.39,22,1.78,32.68.08.4.73.41.74,0A128.58,128.58,0,0,0,122,116.24c-1-6.33-2-13.82-5.54-19.33-.16-.25-.54-.12-.63.11-1.59,4-2.1,8.54-2.69,12.79-.88,6.38-1.51,12.79-2.19,19.2-.71,6.71-1.41,13.42-2.38,20.09-.77,5.24-1.55,10.65-3.38,15.64-.83,2.26-2.67,6.45-5.65,4.17s-2.81-8.07-2.74-11.38c.26-12.29,3.49-24.84,7.57-36.37,1.73-4.88,3.63-10.31,6.92-14.39.38-.46,1.1-1.5,1.73-1.65s-.18-.41,0,.36.13,1.72.19,2.56c.11,1.71.18,3.41.21,5.12a161.34,161.34,0,0,1-.78,19.66l.74,0c-2.76-9.17-2.76-19.26-2.79-28.77a118.06,118.06,0,0,0-.5-12.47c-.32-2.86-.72-6.24-2.62-8.55a.38.38,0,0,0-.44-.09c-4.74,2.3-7.26,8.18-9.13,12.78a119.93,119.93,0,0,0-5.93,20.17,191.6,191.6,0,0,0-4.57,35.68c-.12,5.17-.41,11.82,2.61,16.33a.38.38,0,0,0,.52,0c7.26-4.93,11-13.62,13.29-21.77,3-10.5,4-21.51,4.47-32.38.35-9.26-.16-18.47-.21-27.72,0-8.09.3-16.68-1.67-24.59-.45-1.83-1.21-4.8-3.31-5.42-2.64-.77-5,2.7-6.24,4.43-2.68,3.62-4.84,7.6-7.17,11.44-3,5-6.16,10-8.36,15.4s-3.42,11.59-1.82,17.42c1,3.54,3,6.5,5.09,9.45a74,74,0,0,0,8.39,10c1.21,1.16,3.78,3.94,5.76,3,1.81-.83,2.32-4,2.64-5.67a60.74,60.74,0,0,0,.71-12c-.14-8.19-.74-16.75-2.83-24.7a17.35,17.35,0,0,0-1.07-3.14.37.37,0,0,0-.49-.17c-3.75,1.34-6.24,5.52-8.11,8.78a74.25,74.25,0,0,0-6.19,14c-2.8,8.6-3.21,18.12-3,27.1a81.69,81.69,0,0,0,1.23,13.69c.62,3.25,1.55,7.75,4.17,10.05,3,2.64,5-2.35,5.85-4.53a60.56,60.56,0,0,0,4.13-19c.47-12.46-3.92-23.39-10.27-33.85C79.46,88,73,77.92,70.65,66.52a31.5,31.5,0,0,1,1.17-17.65c1.84-4.74,5.39-10.9,10.24-13.16,7.1-3.32,14.1,3.92,17.51,9.36,3.16,5,7.11,14.47,2.19,19.68-1.8,1.9-4.29,1.5-6.68,1.39A13.08,13.08,0,0,0,87.59,68c-4.83,2.67-8.84,7-12.71,10.86C67.43,86.31,61,95.06,58,105.3c-2.49,8.49-2.27,17.5-1.16,26.19a46.67,46.67,0,0,0,2.67,11.73c.79,2,2.15,4.72,4.57,4.89,3.19.23,5.17-4,6.18-6.35a65.12,65.12,0,0,0,3.46-12.58c2.51-12.6,4.92-25.57,5.15-38.45.06-3.16.66-10.38-2.82-12.25-1.38-.74-2.9,0-4.07.76a25.74,25.74,0,0,0-7.83,9.42,64,64,0,0,0-7,30.31c.05,9.66.7,19.73,3.41,29.05.91,3.08,2.06,6.38,4.37,8.72a.38.38,0,0,0,.59,0c2.69-3.79,3.91-8.5,5.05-12.94,1.33-5.17,2.58-10.35,3.92-15.52,3.18-12.25,6.35-24.54,8.65-37,2.06-11.22,5.8-37-11.48-38.52-5.1-.45-10.29,1.44-14.92,3.36-4.88,2-12.19,5.39-13.49,11.15-1.5,6.64,5.64,8.58,9.76,11.58a8,8,0,0,1,3.44,4.9c.32,1.92-2,2.82-3.44,3.71a46.7,46.7,0,0,0-6.15,3.81c-4.7,4-3.66,11.09-2.83,16.48a201.84,201.84,0,0,0,9.59,36.22,130.59,130.59,0,0,0,6.2,15.11c2.25,4.48,4.85,10.17.16,14-5.19,4.24-13.44,5.27-19.93,4.83-3.29-.22-6.85-1.24-9.05-3.84-3.8-4.47-1.69-10.11,1.23-14.38,2.15-3.15,4.86-5.86,7-9,2.39-3.57,4.63-7.26,7.36-10.59a17.69,17.69,0,0,1,4.4-4.19,3.42,3.42,0,0,1,1.1-.54c1.05-.11.45-.16.81.62.6,1.25.6,3.11.84,4.48.72,4,1.84,8.56,5.68,10.74,6.37,3.62,15-1.46,18.62-6.81,5.29-7.83,5.63-19.26,4-28.24-1.32-7.36-4.53-13.43-8.69-19.5-4-5.81-8.3-12.18-13.94-16.51-1.3-1-3.29-2.42-5-1.83-2.69.9-3.69,4.89-4.14,7.27a39.94,39.94,0,0,0,0,13c.31,2.13.58,6.53,3.3,7.21,2.21.55,4.39-2,5.66-3.36a97.09,97.09,0,0,0,7.22-9.42,30.21,30.21,0,0,0,5.47-11.63,24.25,24.25,0,0,0-1.92-14,33.17,33.17,0,0,0-3.69-6c-.83-1.18-2.33-2.79-2.47-4.28a5.07,5.07,0,0,1,1-2.59A61.15,61.15,0,0,1,71,44.81c2.73-3.46,11.6-13.83,15.29-6,1.37,2.89,1.51,6.41,1.52,9.55a84.43,84.43,0,0,1-.92,11.89,184.72,184.72,0,0,1-4.79,23.18c-.83,3.09-1.74,6.15-2.86,9.15a50.44,50.44,0,0,1-3.49,7.71,25.63,25.63,0,0,1-2,3c-.25.32-2.53,3.25-3.18,3.06a12.36,12.36,0,0,1-1-2.33c-.4-.9-.81-1.8-1.23-2.69-1-2.13-2-4.24-3.19-6.3-1.27-2.28-3-6.16-5.59-7.25-2.35-1-4.82.95-6.45,2.44a82.5,82.5,0,0,0-7.54,8.62,22.69,22.69,0,0,1-7.19,6.26c-2.77,1.43-6.46,2.94-9.59,1.83-4.33-1.55-4.56-7.68-4-11.46a29.34,29.34,0,0,1,5.95-13.24c4.21-5.61,11.78-13,19.3-8.43,5.57,3.38,4.3,12,3.4,17.39-1.26,7.39-3.62,14.52-5.27,21.81-1.92,8.46-1.74,17.38-.8,26a102.51,102.51,0,0,0,6.71,27.56,48.6,48.6,0,0,0,5.26,9.86c1.21,1.7,3.27,4.77,5.61,5.06,6.82.86,1-29.18.5-32.41-1.72-11.62-3.52-23.23-5.75-34.76a.38.38,0,0,0-.72-.06c-2.65,8-5.46,17.64-11.6,23.79-7.84,7.84-15.5-2.73-18.73-9.57a62.1,62.1,0,0,1-4.43-13.89c-.78-3.75-2-9.28.28-12.75,4.76-7.21,11.86,6.73,13.45,9.86,3.61,7.07,6.34,14.53,9.39,21.86.18.44.84.12.67-.32-2.28-6-3.61-13.4-8.21-18.17a.38.38,0,0,0-.59,0c-4,4.4-5.2,11.58-6.07,17.22-1,6.09-1.72,13.48.8,19.32a.38.38,0,0,0,.64.05c2.66-4.61,1.92-10.36,1.83-15.45-.07-4,0-8-.15-11.94-.26-9.47-.63-19,.37-28.47.41-3.86,1-8,2.71-11.49a9.07,9.07,0,0,0,.75-1.51c.3-.07,1.13.93,1.31,1.13a14.35,14.35,0,0,1,2.23,3.38c3.14,6.28,4.28,13.75,4.82,20.67a52.77,52.77,0,0,1,0,9.49c-.14,1.31-.33,4.91-1.94,5.5-2.22.81-4.65-4.55-5.3-5.87A46.59,46.59,0,0,1,37,102a43.33,43.33,0,0,1-.27-7.64,31.06,31.06,0,0,1,.41-3.59c.13-.71.28-1.41.47-2.11s0-1,.58-.73c1.11.52,1.52,3.31,1.66,4.3a23.72,23.72,0,0,1-.08,6.07,55.39,55.39,0,0,1-3.4,13,52.59,52.59,0,0,1-2.13,4.88c-.46.9-1.61,3.81-2.68,4.19.23-.08-.42-.69-.69-1.15A12.83,12.83,0,0,1,30,117a33.12,33.12,0,0,1-1.41-6,42.86,42.86,0,0,1-.19-13.61,10.62,10.62,0,0,1,1.73-4.85c.32-.4,1-1.15,1.61-1.12,1.05.06.91,1.45.88,2.23a23.82,23.82,0,0,1-1.2,5.95c-.45,1.46-.91,3.53-2,4.69l.61.22a24.2,24.2,0,0,1-.29-4.08c0-.47-.74-.55-.74-.07Z"/></svg>